<?xml version="1.0" encoding="utf-8"?>
<!-- Generator: Adobe Illustrator 16.0.0, SVG Export Plug-In . SVG Version: 6.00 Build 0)  -->
<!DOCTYPE svg PUBLIC "-//W3C//DTD SVG 1.1//EN" "http://www.w3.org/Graphics/SVG/1.1/DTD/svg11.dtd">
<svg version="1.1" id="Calque_1" xmlns="http://www.w3.org/2000/svg" xmlns:xlink="http://www.w3.org/1999/xlink" x="0px" y="0px"
	 width="145px" height="50px" viewBox="0 0 145 50" enable-background="new 0 0 145 50" xml:space="preserve">
<g>
	<path d="M30.357,31.812c0,3.347-1.07,6.024-3.209,8.035c-2.14,2.011-5.313,3.016-9.52,3.016c-2.14,0-4.083-0.25-5.83-0.749
		c-1.747-0.498-3.245-1.211-4.492-2.139l-0.749-7.969c3.29,2.639,6.867,3.958,10.732,3.958c1.539,0,2.719-0.295,3.542-0.885
		c0.823-0.589,1.235-1.401,1.235-2.438c0-0.499-0.082-0.955-0.242-1.366c-0.162-0.411-0.448-0.786-0.859-1.126
		c-0.412-0.339-0.967-0.678-1.665-1.018c-0.698-0.339-1.583-0.687-2.657-1.044c-3.006-1.037-5.279-2.475-6.817-4.314
		c-1.539-1.839-2.308-3.937-2.308-6.296c0-1.463,0.268-2.822,0.803-4.072s1.303-2.348,2.302-3.295c1-0.946,2.24-1.688,3.722-2.224
		c1.48-0.536,3.149-0.804,5.005-0.804c2.141,0,3.881,0.214,5.22,0.642c1.338,0.428,2.382,0.892,3.132,1.391l-0.642,6.952
		c-0.823-0.521-1.867-0.999-3.135-1.434c-1.269-0.435-2.581-0.652-3.938-0.652c-1.501,0-2.599,0.285-3.296,0.854
		c-0.696,0.57-1.044,1.264-1.044,2.082c0,0.819,0.365,1.513,1.096,2.083c0.73,0.57,2.113,1.192,4.145,1.869
		c1.355,0.462,2.612,1.041,3.771,1.734c1.159,0.694,2.157,1.504,2.996,2.43c0.837,0.925,1.497,1.948,1.979,3.069
		S30.357,30.46,30.357,31.812z"/>
	<path d="M61.431,16.442c-0.891-0.57-2.006-1.07-3.343-1.498c-1.337-0.428-2.934-0.642-4.787-0.642c-1.534,0-2.987,0.25-4.359,0.749
		c-1.373,0.5-2.559,1.221-3.557,2.166c-0.999,0.945-1.792,2.078-2.38,3.396c-0.588,1.319-0.882,2.78-0.882,4.386
		c0,1.604,0.294,3.058,0.882,4.358c0.588,1.302,1.39,2.425,2.407,3.369c1.016,0.945,2.228,1.667,3.637,2.166
		c1.408,0.5,2.915,0.749,4.519,0.749c1.854,0,3.485-0.188,4.894-0.562c1.408-0.374,2.576-0.864,3.504-1.471l-0.695,7.434
		c-0.963,0.571-2.176,1.017-3.637,1.337c-1.463,0.322-3.228,0.481-5.295,0.481c-2.246,0-4.475-0.384-6.685-1.15
		c-2.211-0.765-4.198-1.898-5.963-3.396c-1.765-1.497-3.201-3.36-4.305-5.589C34.279,30.5,33.727,27.924,33.727,25
		c0-2.959,0.552-5.553,1.658-7.782c1.104-2.228,2.541-4.091,4.305-5.588c1.765-1.498,3.752-2.621,5.963-3.37
		c2.21-0.749,4.439-1.124,6.685-1.124c2.139,0,4.028,0.197,5.669,0.588c1.64,0.393,2.976,0.892,4.011,1.498L61.431,16.442z"/>
	<path d="M86.62,42.061l-9.199-13.424h-2.941v13.424h-7.969V7.939h12.729c1.461,0,2.852,0.241,4.172,0.722
		c1.318,0.481,2.486,1.159,3.502,2.033c1.018,0.874,1.828,1.952,2.434,3.235c0.605,1.284,0.91,2.728,0.91,4.332
		c0,2.032-0.508,3.797-1.525,5.295c-1.016,1.497-2.254,2.585-3.717,3.263l10.857,15.242H86.62z M82.288,18.261
		c0-1.284-0.447-2.237-1.338-2.861c-0.891-0.624-1.871-0.936-2.941-0.936h-3.529v7.648h3.529c1.07,0,2.051-0.303,2.941-0.91
		C81.841,20.597,82.288,19.617,82.288,18.261z"/>
	<path d="M98.224,42.061V7.939h8.291v34.122l-4.145,5.871L98.224,42.061z"/>
	<path d="M137.479,31.471c0,1.641-0.303,3.12-0.908,4.439c-0.607,1.319-1.445,2.434-2.514,3.343
		c-1.07,0.909-2.309,1.604-3.717,2.085c-1.41,0.481-2.916,0.723-4.52,0.723h-12.891V7.939h11.447c1.354,0,2.629,0.214,3.822,0.642
		c1.195,0.428,2.256,1.025,3.184,1.792c0.926,0.767,1.656,1.711,2.191,2.834s0.803,2.379,0.803,3.77c0,0.5-0.062,1.035-0.188,1.605
		s-0.303,1.115-0.535,1.631s-0.525,0.989-0.881,1.417c-0.357,0.428-0.768,0.767-1.23,1.016c0.713,0.214,1.426,0.606,2.139,1.177
		s1.355,1.248,1.926,2.032s1.023,1.658,1.363,2.62C137.312,29.438,137.479,30.438,137.479,31.471z M126.837,17.512
		c0-1.248-0.383-2.14-1.15-2.674c-0.766-0.535-1.631-0.802-2.594-0.802h-2.621v6.899h2.621c0.963,0,1.828-0.258,2.594-0.775
		C126.454,19.643,126.837,18.761,126.837,17.512z M129.458,31.471c0-1.497-0.518-2.611-1.551-3.342
		c-1.035-0.73-2.193-1.097-3.477-1.097h-3.959v8.824h3.959c0.641,0,1.266-0.089,1.871-0.267c0.605-0.179,1.141-0.446,1.605-0.803
		c0.463-0.356,0.838-0.812,1.123-1.364C129.315,32.871,129.458,32.22,129.458,31.471z"/>
</g>
</svg>
