<?xml version="1.0" encoding="utf-8"?>
<!-- Generator: Adobe Illustrator 16.0.0, SVG Export Plug-In . SVG Version: 6.00 Build 0)  -->
<!DOCTYPE svg PUBLIC "-//W3C//DTD SVG 1.1//EN" "http://www.w3.org/Graphics/SVG/1.1/DTD/svg11.dtd">
<svg version="1.1" id="Calque_1" xmlns="http://www.w3.org/2000/svg" xmlns:xlink="http://www.w3.org/1999/xlink" x="0px" y="0px"
	 width="300px" height="110px" viewBox="0 0 300 110" enable-background="new 0 0 300 110" xml:space="preserve">
<g>
	<path fill="#FFFFFF" d="M62.808,69.095c0,6.924-2.213,12.462-6.64,16.624c-4.428,4.158-10.992,6.239-19.696,6.239
		c-4.428,0-8.448-0.518-12.062-1.55c-3.614-1.03-6.713-2.507-9.293-4.427l-1.55-16.487c6.807,5.46,14.207,8.189,22.204,8.189
		c3.184,0,5.625-0.61,7.328-1.831c1.702-1.218,2.555-2.899,2.555-5.045c0-1.03-0.17-1.976-0.5-2.824
		c-0.335-0.851-0.927-1.627-1.778-2.332c-0.852-0.699-2-1.402-3.445-2.105c-1.444-0.701-3.275-1.422-5.497-2.159
		c-6.219-2.146-10.922-5.122-14.104-8.925c-3.185-3.807-4.775-8.146-4.775-13.028c0-3.026,0.555-5.839,1.661-8.425
		c1.107-2.587,2.696-4.857,4.763-6.817c2.069-1.956,4.634-3.491,7.701-4.601c3.062-1.109,6.515-1.663,10.355-1.663
		c4.43,0,8.029,0.442,10.799,1.33c2.769,0.885,4.929,1.844,6.481,2.877l-1.329,14.382c-1.703-1.077-3.863-2.065-6.487-2.967
		c-2.625-0.898-5.34-1.35-8.147-1.35c-3.105,0-5.376,0.59-6.819,1.769c-1.439,1.178-2.16,2.616-2.16,4.308
		c0,1.695,0.756,3.13,2.268,4.31c1.51,1.18,4.371,2.465,8.576,3.867c2.804,0.955,5.404,2.153,7.802,3.588
		c2.397,1.435,4.462,3.111,6.198,5.027c1.732,1.913,3.097,4.028,4.095,6.349C62.31,63.736,62.808,66.296,62.808,69.095z"/>
	<path fill="#FFFFFF" d="M127.099,37.292c-1.844-1.178-4.15-2.212-6.917-3.1c-2.766-0.885-6.07-1.327-9.904-1.327
		c-3.173,0-6.18,0.518-9.018,1.55c-2.841,1.034-5.295,2.525-7.36,4.481c-2.067,1.956-3.708,4.3-4.924,7.027s-1.824,5.75-1.824,9.073
		c0,3.32,0.608,6.326,1.824,9.018c1.216,2.693,2.876,5.017,4.98,6.971c2.103,1.954,4.61,3.447,7.524,4.481
		c2.913,1.034,6.031,1.548,9.35,1.548c3.836,0,7.211-0.388,10.126-1.162c2.913-0.773,5.33-1.788,7.249-3.045l-1.438,15.382
		c-1.992,1.183-4.502,2.104-7.525,2.767c-3.026,0.667-6.678,0.994-10.955,0.994c-4.646,0-9.258-0.792-13.831-2.378
		c-4.574-1.582-8.685-3.926-12.337-7.025s-6.622-6.953-8.907-11.565C70.922,66.379,69.78,61.049,69.78,55
		c0-6.122,1.142-11.489,3.43-16.102c2.285-4.608,5.257-8.464,8.907-11.562c3.652-3.099,7.763-5.423,12.337-6.973
		c4.572-1.55,9.185-2.325,13.831-2.325c4.426,0,8.335,0.408,11.729,1.219c3.394,0.812,6.158,1.844,8.3,3.099L127.099,37.292z"/>
	<path fill="#FFFFFF" d="M179.214,90.297l-19.032-27.773h-6.084v27.773h-16.489V19.702h26.337c3.022,0,5.899,0.497,8.632,1.493
		c2.728,0.996,5.144,2.398,7.245,4.204c2.105,1.811,3.782,4.041,5.035,6.696c1.253,2.654,1.883,5.643,1.883,8.961
		c0,4.204-1.051,7.857-3.156,10.957c-2.101,3.095-4.663,5.346-7.689,6.748l22.464,31.535H179.214z M170.251,41.057
		c0-2.657-0.925-4.629-2.768-5.918c-1.845-1.294-3.871-1.938-6.086-1.938h-7.3v15.823h7.3c2.215,0,4.245-0.627,6.086-1.882
		C169.326,45.892,170.251,43.862,170.251,41.057z"/>
	<path fill="#FFFFFF" d="M203.224,90.297V19.702h17.153v70.595l-8.577,12.147L203.224,90.297z"/>
	<path fill="#FFFFFF" d="M284.438,68.387c0,3.395-0.627,6.456-1.879,9.186c-1.255,2.728-2.988,5.035-5.201,6.916
		c-2.214,1.881-4.776,3.319-7.689,4.313c-2.918,0.994-6.033,1.495-9.351,1.495h-26.671V19.702h23.683
		c2.802,0,5.438,0.44,7.907,1.327c2.472,0.885,4.668,2.119,6.587,3.708c1.918,1.588,3.427,3.539,4.534,5.863
		c1.105,2.323,1.661,4.922,1.661,7.799c0,1.034-0.128,2.142-0.391,3.321c-0.258,1.181-0.626,2.308-1.106,3.374
		c-0.479,1.067-1.085,2.047-1.823,2.933c-0.737,0.887-1.588,1.586-2.543,2.103c1.475,0.44,2.949,1.253,4.427,2.435
		c1.475,1.183,2.802,2.58,3.984,4.205c1.18,1.62,2.115,3.431,2.82,5.419C284.095,64.181,284.438,66.25,284.438,68.387z
		 M262.421,39.507c0-2.582-0.792-4.427-2.378-5.532c-1.586-1.107-3.374-1.659-5.368-1.659h-5.421V46.59h5.421
		c1.994,0,3.782-0.535,5.368-1.604C261.629,43.915,262.421,42.091,262.421,39.507z M267.844,68.387c0-3.095-1.072-5.402-3.208-6.914
		c-2.142-1.511-4.538-2.269-7.195-2.269h-8.19v18.255h8.19c1.326,0,2.619-0.182,3.871-0.552c1.253-0.369,2.36-0.923,3.322-1.66
		c0.958-0.738,1.733-1.68,2.323-2.823C267.547,71.284,267.844,69.938,267.844,68.387z"/>
</g>
</svg>
