<?xml version="1.0" encoding="iso-8859-1"?>
<!-- Generator: Adobe Illustrator 18.0.0, SVG Export Plug-In . SVG Version: 6.00 Build 0)  -->
<!DOCTYPE svg PUBLIC "-//W3C//DTD SVG 1.1//EN" "http://www.w3.org/Graphics/SVG/1.1/DTD/svg11.dtd">
<svg version="1.1" id="Capa_1" xmlns="http://www.w3.org/2000/svg" xmlns:xlink="http://www.w3.org/1999/xlink" x="0px" y="0px"
	 viewBox="0 0 60 60" style="enable-background:new 0 0 60 60;" xml:space="preserve">
<g>
	<path d="M27,18.997h6c0.553,0,1-0.447,1-1s-0.447-1-1-1h-6c-0.553,0-1,0.447-1,1S26.447,18.997,27,18.997z"/>
	<path d="M42,32.997h-6c-0.553,0-1,0.447-1,1s0.447,1,1,1h6c0.553,0,1-0.447,1-1S42.553,32.997,42,32.997z"/>
	<path d="M18,26.997h5c0.553,0,1-0.447,1-1s-0.447-1-1-1h-5c-0.553,0-1,0.447-1,1S17.447,26.997,18,26.997z"/>
	<path d="M30,25.997c0,0.553,0.447,1,1,1h7c0.553,0,1-0.447,1-1s-0.447-1-1-1h-7C30.447,24.997,30,25.445,30,25.997z"/>
	<path d="M27,26.997c0.26,0,0.52-0.11,0.71-0.29c0.18-0.19,0.29-0.45,0.29-0.71c0-0.271-0.11-0.521-0.29-0.71
		c-0.37-0.37-1.05-0.37-1.42,0c-0.181,0.18-0.29,0.439-0.29,0.71c0,0.26,0.109,0.52,0.29,0.71C26.479,26.887,26.74,26.997,27,26.997
		z"/>
	<path d="M32,32.997H22c-0.553,0-1,0.447-1,1s0.447,1,1,1h10c0.553,0,1-0.447,1-1S32.553,32.997,32,32.997z"/>
	<path d="M18,34.997c0.27,0,0.52-0.11,0.71-0.29c0.18-0.19,0.29-0.45,0.29-0.71s-0.11-0.521-0.29-0.71c-0.37-0.37-1.05-0.37-1.42,0
		c-0.19,0.189-0.29,0.45-0.29,0.71s0.1,0.52,0.29,0.71C17.479,34.887,17.74,34.997,18,34.997z"/>
	<path d="M42,26.997c0.26,0,0.52-0.11,0.71-0.29c0.18-0.19,0.29-0.45,0.29-0.71c0-0.271-0.11-0.521-0.29-0.71
		c-0.38-0.37-1.05-0.37-1.42,0c-0.181,0.189-0.29,0.439-0.29,0.71c0,0.26,0.1,0.52,0.29,0.71C41.479,26.887,41.74,26.997,42,26.997z
		"/>
	<path d="M54,20.975V8.997H41.135l-8.593-8c-1.426-1.326-3.659-1.327-5.085,0.001l-8.592,7.999H6v11.978l-6,5.585v1.728v29.418
		v2.291h60v-2.291V28.288v-1.728L54,20.975z M20.047,42.766C20.028,42.843,20,42.916,20,42.997s0.028,0.155,0.047,0.231L2,56.978
		V29.017L20.047,42.766z M22.338,43.997h15.324l18.375,14H3.963L22.338,43.997z M58,29.017v27.961l-18.35-13.98L58,29.017z
		 M57.462,26.931c-0.031,0.02-0.065,0.031-0.094,0.053L54,29.549v-5.842L57.462,26.931z M28.819,2.462
		c0.662-0.615,1.7-0.614,2.36-0.001l7.02,6.536H21.801L28.819,2.462z M8,10.997h8.717h26.566H52v8.116v11.959L37.662,41.997H22.338
		L8,31.074v-11.96V10.997z M6,29.55l-3.368-2.566c-0.029-0.022-0.064-0.033-0.094-0.053L6,23.707V29.55z"/>
</g>
<g>
</g>
<g>
</g>
<g>
</g>
<g>
</g>
<g>
</g>
<g>
</g>
<g>
</g>
<g>
</g>
<g>
</g>
<g>
</g>
<g>
</g>
<g>
</g>
<g>
</g>
<g>
</g>
<g>
</g>
</svg>
