<?xml version="1.0" encoding="iso-8859-1"?>
<!-- Generator: Adobe Illustrator 19.0.0, SVG Export Plug-In . SVG Version: 6.00 Build 0)  -->
<svg version="1.1" id="Layer_1" xmlns="http://www.w3.org/2000/svg" xmlns:xlink="http://www.w3.org/1999/xlink" x="0px" y="0px"
	 viewBox="0 0 512 512" style="enable-background:new 0 0 512 512;" xml:space="preserve">
<g>
	<g>
		<g>
			<path d="M256,392.533c4.71,0,8.533-3.823,8.533-8.533v-26.812c14.677-3.814,25.6-17.067,25.6-32.922
				c0-18.825-15.309-34.133-34.133-34.133s-34.133,15.309-34.133,34.133c0,15.855,10.923,29.107,25.6,32.922V384
				C247.467,388.71,251.29,392.533,256,392.533z M238.933,324.267c0-9.412,7.654-17.067,17.067-17.067s17.067,7.654,17.067,17.067
				c0,9.412-7.654,17.067-17.067,17.067S238.933,333.679,238.933,324.267z"/>
			<path d="M76.8,426.667c4.71,0,8.533-3.823,8.533-8.533V247.467c0-12.442,13.158-25.6,25.6-25.6h51.2
				c4.71,0,8.533-3.823,8.533-8.533V102.4c0-47.053,38.281-85.333,85.333-85.333s85.333,38.281,85.333,85.333v102.4H196.267
				c-4.71,0-8.533,3.823-8.533,8.533c0,4.71,3.823,8.533,8.533,8.533h153.6c4.71,0,8.533-3.823,8.533-8.533V102.4
				C358.4,45.935,312.465,0,256,0S153.6,45.935,153.6,102.4v102.4h-42.667c-21.931,0-42.667,20.736-42.667,42.667v170.667
				C68.267,422.844,72.09,426.667,76.8,426.667z"/>
			<path d="M401.067,204.8H384c-4.71,0-8.533,3.823-8.533,8.533c0,4.71,3.823,8.533,8.533,8.533h17.067
				c12.442,0,25.6,13.158,25.6,25.6v221.867c0,12.442-13.158,25.6-25.6,25.6H110.933c-12.442,0-25.6-13.158-25.6-25.6V460.8h315.733
				c4.71,0,8.533-3.823,8.533-8.533c0-4.71-3.823-8.533-8.533-8.533H76.8c-4.71,0-8.533,3.823-8.533,8.533v17.067
				c0,21.931,20.736,42.667,42.667,42.667h290.133c21.931,0,42.667-20.736,42.667-42.667V247.467
				C443.733,225.536,422.997,204.8,401.067,204.8z"/>
		</g>
	</g>
</g>
<g>
</g>
<g>
</g>
<g>
</g>
<g>
</g>
<g>
</g>
<g>
</g>
<g>
</g>
<g>
</g>
<g>
</g>
<g>
</g>
<g>
</g>
<g>
</g>
<g>
</g>
<g>
</g>
<g>
</g>
</svg>
