<?xml version="1.0" encoding="iso-8859-1"?>
<!-- Generator: Adobe Illustrator 19.0.0, SVG Export Plug-In . SVG Version: 6.00 Build 0)  -->
<svg version="1.1" id="Capa_1" xmlns="http://www.w3.org/2000/svg" xmlns:xlink="http://www.w3.org/1999/xlink" x="0px" y="0px"
	 viewBox="0 0 470 470" style="enable-background:new 0 0 470 470;" xml:space="preserve">
<g>
	<path d="M467.803,457.196l-70.71-70.711c-2.929-2.928-7.678-2.928-10.606,0c-2.929,2.93-2.929,7.678,0,10.607L444.394,455H15v-45
		h22.5c4.142,0,7.5-3.357,7.5-7.5s-3.358-7.5-7.5-7.5H15v-30h22.5c4.142,0,7.5-3.357,7.5-7.5s-3.358-7.5-7.5-7.5H15v-30h22.5
		c4.142,0,7.5-3.357,7.5-7.5s-3.358-7.5-7.5-7.5H15v-30h22.5c4.142,0,7.5-3.357,7.5-7.5s-3.358-7.5-7.5-7.5H15v-30h22.5
		c4.142,0,7.5-3.357,7.5-7.5s-3.358-7.5-7.5-7.5H15v-30h22.5c4.142,0,7.5-3.357,7.5-7.5s-3.358-7.5-7.5-7.5H15v-30h22.5
		c4.142,0,7.5-3.357,7.5-7.5s-3.358-7.5-7.5-7.5H15V95h22.5c4.142,0,7.5-3.357,7.5-7.5S41.642,80,37.5,80H15V25.607L365.273,375.88
		c2.929,2.928,7.678,2.928,10.606,0c2.929-2.93,2.929-7.678,0-10.607L12.803,2.196C10.659,0.052,7.432-0.59,4.63,0.571
		C1.827,1.732,0,4.467,0,7.5v455c0,4.143,3.358,7.5,7.5,7.5h455c3.034,0,5.768-1.827,6.929-4.63
		C470.59,462.568,469.948,459.342,467.803,457.196z"/>
	<path d="M162.521,286.266c2.929,2.928,7.678,2.928,10.606,0c2.929-2.93,2.929-7.678,0-10.607l-80.325-80.325
		c-2.145-2.145-5.371-2.785-8.173-1.625c-2.803,1.16-4.63,3.896-4.63,6.929V382.5c0,4.143,3.358,7.5,7.5,7.5h181.863
		c3.034,0,5.768-1.827,6.929-4.63c1.161-2.803,0.519-6.028-1.626-8.174l-80.325-80.325c-2.929-2.928-7.678-2.928-10.606,0
		c-2.929,2.93-2.929,7.678,0,10.607L251.256,375H95V218.743L162.521,286.266z"/>
</g>
<g>
</g>
<g>
</g>
<g>
</g>
<g>
</g>
<g>
</g>
<g>
</g>
<g>
</g>
<g>
</g>
<g>
</g>
<g>
</g>
<g>
</g>
<g>
</g>
<g>
</g>
<g>
</g>
<g>
</g>
</svg>
