<?xml version="1.0" encoding="iso-8859-1"?>
<!-- Generator: Adobe Illustrator 19.0.0, SVG Export Plug-In . SVG Version: 6.00 Build 0)  -->
<svg version="1.1" id="Layer_1" xmlns="http://www.w3.org/2000/svg" xmlns:xlink="http://www.w3.org/1999/xlink" x="0px" y="0px"
	 viewBox="0 0 512 512" style="enable-background:new 0 0 512 512;" xml:space="preserve">
<g>
	<g>
		<g>
			<path d="M204.8,102.4v102.4h-42.667c-21.931,0-42.667,20.736-42.667,42.667v170.667c0,4.71,3.823,8.533,8.533,8.533
				s8.533-3.823,8.533-8.533V247.467c0-12.442,13.158-25.6,25.6-25.6h51.2c4.71,0,8.533-3.823,8.533-8.533V102.4
				c0-56.465-45.935-102.4-102.4-102.4c-56.465,0-102.4,45.935-102.4,102.4v42.667c0,4.71,3.823,8.533,8.533,8.533
				s8.533-3.823,8.533-8.533V102.4c0-47.053,38.281-85.333,85.333-85.333S204.8,55.347,204.8,102.4z"/>
			<path d="M307.2,392.533c4.71,0,8.533-3.823,8.533-8.533v-26.812c14.677-3.814,25.6-17.067,25.6-32.922
				c0-18.825-15.309-34.133-34.133-34.133c-18.825,0-34.133,15.309-34.133,34.133c0,15.855,10.923,29.107,25.6,32.922V384
				C298.667,388.71,302.49,392.533,307.2,392.533z M290.133,324.267c0-9.412,7.654-17.067,17.067-17.067
				c9.412,0,17.067,7.654,17.067,17.067c0,9.412-7.654,17.067-17.067,17.067C297.788,341.333,290.133,333.679,290.133,324.267z"/>
			<path d="M452.267,204.8h-204.8c-4.71,0-8.533,3.823-8.533,8.533c0,4.71,3.823,8.533,8.533,8.533h204.8
				c12.442,0,25.6,13.158,25.6,25.6v221.867c0,12.442-13.158,25.6-25.6,25.6H162.133c-12.442,0-25.6-13.158-25.6-25.6V460.8h315.733
				c4.71,0,8.533-3.823,8.533-8.533c0-4.71-3.823-8.533-8.533-8.533H128c-4.71,0-8.533,3.823-8.533,8.533v17.067
				c0,21.931,20.736,42.667,42.667,42.667h290.133c21.931,0,42.667-20.736,42.667-42.667V247.467
				C494.933,225.536,474.197,204.8,452.267,204.8z"/>
		</g>
	</g>
</g>
<g>
</g>
<g>
</g>
<g>
</g>
<g>
</g>
<g>
</g>
<g>
</g>
<g>
</g>
<g>
</g>
<g>
</g>
<g>
</g>
<g>
</g>
<g>
</g>
<g>
</g>
<g>
</g>
<g>
</g>
</svg>
